# xmcd
#
# Track frame offsets:
#	150
#	13675
#	30962
#	46878
#	60392
#	74028
#	91758
#	110134
#	124799
#	147303
#	162375
#	181719
#	196040
#	214017
#	230533
#
# Disc length: 3250 seconds
#
# Revision: 3
# Processed by: cddbd v1.5.2PL0 Copyright (c) Steve Scherf et al.
# Submitted via: audiograbber 1.83.01
#
DISCID=c80cb00f
DTITLE=Various Artist - Saturday Night Country - Hottest Hits Volume 1
DYEAR=2005
DGENRE=Country
TTITLE0=Davidson Brothers - Stay All Night
TTITLE1=Carla Herrod - Out All Night
TTITLE2=Anne Kirkpatrick - Travellin' Still, Always Will
TTITLE3=Troy Cassar-Daley - I Got A Name
TTITLE4=Norah Jones - Creepin' In
TTITLE5=Kasey Chambers - Like A River
TTITLE6=Jonah's Road - Getting By Without You
TTITLE7=Felicity Urquhart - Turn Out The Light
TTITLE8=John Williamson - Wrinkles (Live)
TTITLE9=Alison Krauss and Union Station - Let Me Touch You For A While
TTITLE10=Daniel Thompson - The Richest Man In Town
TTITLE11=Stacey Morris - So Far Away
TTITLE12=Bella - Tumblin' Down
TTITLE13=Adam Harvey - A Little More To It Than That
TTITLE14=Sara Storer - Beautiful Circle
EXTD=YEAR: 2005
EXTT0=
EXTT1=
EXTT2=
EXTT3=
EXTT4=
EXTT5=
EXTT6=
EXTT7=
EXTT8=
EXTT9=
EXTT10=
EXTT11=
EXTT12=
EXTT13=
EXTT14=
PLAYORDER=
